PathFileType	4	(X/Y/Z)	Patient4_TMGait_0pt3_01_left_30.trc.trc
DataRate	CameraRate	NumFrames	NumMarkers	Units	OrigDataRate	OrigDataStartFrame	OrigNumFrames
50.000000000000	50.000000000000	6	33	mm	50.000000000000	106	       141
Frame#	Time	Sacral			L.Shoulder			Chest			R.Shoulder			Neck			R.ASIS			L.ASIS			R.Thigh.Superior			R.Thigh.Lateral			R.Thigh.Inferior			R.Patella			L.Thigh.Superior			L.Thigh.Lateral			L.Thigh.Inferior			L.Patella			L.Shank.Superior			L.Shank.Lateral			L.Shank.Inferior			R.Shank.Superior			R.Shank.Lateral			R.Shank.Inferior			R.Heel			R.Midfoot.Superior			R.Midfoot.Lateral			R.Toe			L.Heel			L.Midfoot.Lateral			L.Midfoot.Superior			L.Toe			L.Elbow			L.Wrist			R.Elbow			R.Wrist			
		X1	Y1	Z1	X2	Y2	Z2	X3	Y3	Z3	X4	Y4	Z4	X5	Y5	Z5	X6	Y6	Z6	X7	Y7	Z7	X8	Y8	Z8	X9	Y9	Z9	X10	Y10	Z10	X11	Y11	Z11	X12	Y12	Z12	X13	Y13	Z13	X14	Y14	Z14	X15	Y15	Z15	X16	Y16	Z16	X17	Y17	Z17	X18	Y18	Z18	X19	Y19	Z19	X20	Y20	Z20	X21	Y21	Z21	X22	Y22	Z22	X23	Y23	Z23	X24	Y24	Z24	X25	Y25	Z25	X26	Y26	Z26	X27	Y27	Z27	X28	Y28	Z28	X29	Y29	Z29	X30	Y30	Z30	X31	Y31	Z31	X32	Y32	Z32	X33	Y33	Z33	

106	58.830000000000	702.498006465953	981.926442522407	566.106381698710	895.953961535850	1410.199352046839	382.709025658075	983.397684359240	1346.888663487094	554.482364939666	883.903556222389	1424.538296835101	717.961656045098	868.108043328266	1476.896582427338	537.330982385070	931.163081541855	928.919438834564	695.399538669444	928.190516875467	946.008289281272	421.087901426434	992.019821041818	732.364347846397	655.474130237541	917.675351467398	611.090407643651	700.867736158092	1001.608470941061	569.831783142020	620.162500843739	1007.677967664002	472.561512110235	620.955431936962	1018.078263595314	765.689381301289	465.758879496199	987.159509691801	635.940350999269	388.290405835643	1080.699798525857	576.624789096748	469.707495376694	1094.421853371362	484.759925561551	459.996088300484	1025.130997424900	421.382157298996	438.715262174197	885.242656347982	389.666282912500	377.381329988831	864.235870988428	256.866730395524	419.382902422496	960.855551126898	384.850231665655	621.321082730573	871.089923410873	291.702858906322	676.232001944130	895.446006662282	194.929823392341	610.014879437704	737.931354957230	44.174713612473	570.732637216443	907.931572908519	95.746634226661	615.490461973598	816.862073456618	37.449633648832	650.690998940308	1025.306127326075	42.203866276981	653.748246411122	669.876606889835	194.977543882214	441.847128604424	730.397960699025	158.227449159016	359.094694630315	834.695566289246	159.933575139532	386.073731617885	910.701852924506	49.880505968333	346.464903596892	906.453368966048	1049.128362921833	289.258187537732	994.331496295406	804.846056516525	298.269102856908	899.181783502626	1088.239603920095	868.429613473626	1103.492444734928	936.177794265650	921.973858120483	
107	58.850000000000	701.713850496046	979.225182317472	569.782182353821	891.418879715013	1406.967720185571	382.103602695479	982.021077767378	1344.620158204947	552.598840437829	885.364287283791	1422.735841788427	717.654793582229	866.570723082995	1474.568739632879	536.979603849155	932.343191615559	927.032262529695	695.890804746321	925.382906733762	944.046663174606	421.633640987342	993.242680474604	730.530987467961	655.006378790032	919.810759914400	608.800899890426	700.844397842498	1002.929340370938	567.950384082066	619.072358154091	1008.865794159573	470.002426374111	619.631116594350	1018.395011986059	766.672880354230	466.170617005751	989.377270751824	636.284353405820	389.167321655872	1084.544812261759	578.861042021086	469.932411497801	1100.209917352998	487.514201584368	460.353305874348	1032.894309034598	422.474563507381	439.259791631082	893.848582172342	385.999042542329	378.694017911277	877.862016794385	252.480109144639	420.645450370276	960.456692273150	382.530967706542	620.436761708466	869.409330859834	290.679148302765	675.776248694424	891.712340857036	193.621634853669	609.434912164917	731.951290189733	44.230254356554	570.741354389569	902.143468953729	95.786733307728	615.493711653065	810.887655390470	37.469007517785	650.707116434125	1019.330033999117	42.045209514243	653.793465115310	685.962468961585	183.115023123587	443.981076981928	747.527435595812	148.924446494831	360.933042510879	851.753958392741	155.035082996876	387.501872140238	932.120180698371	48.457733148360	347.507465864507	889.494600592586	1045.446713650936	290.037075237835	958.711843616912	794.701008794655	298.587507157236	911.668691023203	1087.696813611183	868.949392293079	1125.718136441629	948.483566849240	917.847596741524	
108	58.870000000000	701.133931055038	977.175915074366	573.236981923281	886.924185634414	1404.332370484226	381.428247687044	980.802332717579	1342.849331390773	550.455333569440	887.190195429674	1421.445584306719	717.121522046116	865.236645345065	1472.758171192725	536.506829230207	933.579081388764	925.552260303943	696.083054267432	922.639349165077	942.484478594951	421.926703156509	993.862647751117	728.834112220645	654.357802455876	921.014202310127	606.911461223188	700.745781301870	1003.149385097900	566.228129321641	617.932412529670	1008.695349310961	467.783565654001	618.274022411332	1018.279165796856	767.644406792618	466.186872611105	990.681856947529	636.751885324743	389.525795906362	1087.296620762365	580.936373468849	469.481769310698	1104.764388410525	490.327929426246	460.027913134827	1039.784195587854	423.652827857190	439.142811293769	902.070859260520	381.664084474288	379.309192178877	891.899718483247	247.558643596305	421.252993138906	959.015941434340	380.573387835566	619.574350423694	866.977804451979	289.796020532582	675.367529128701	887.540287098351	192.521585998009	608.922846661937	725.972654463623	44.268130191916	570.792626353354	896.307155328554	95.820095735737	615.512538831699	804.895704230896	37.475907964991	650.746219124113	1013.330744223111	41.922313217588	653.831475236859	703.263719609935	169.945074140097	445.493848533554	765.867357118431	138.525564639774	362.183742311425	869.768308178343	149.441326154737	388.337828763174	954.733612686715	46.809411500658	348.062145278875	871.681683937282	1043.054177400541	290.319734936522	923.528084368844	787.828307408530	299.055499278518	924.489718676499	1087.972975735084	868.949195353027	1147.649016498379	962.533520402666	912.357512863420	
109	58.890000000000	700.795684139863	975.944562113653	576.473135693668	882.492580623882	1402.465156740099	380.692022520019	979.771321929965	1341.726918210449	548.039347428183	889.438760785833	1420.817641216656	716.341025569005	864.132675773207	1471.604578692282	535.916895381539	934.884031724598	924.582820858623	695.942982009960	920.004118635268	941.491312108212	421.932970277141	993.832712261502	727.350729442153	653.522510328651	921.192615261314	605.527765228464	700.588291627673	1002.164425521693	564.738108302248	616.774203077754	1007.053659208746	465.991375684086	616.936209667078	1017.691059252364	768.673697646604	465.846254316189	991.009610963785	637.419926675566	389.377319510398	1088.827446259230	582.872726347282	468.420851850398	1107.949285812270	493.231245599787	459.073490776061	1045.653965942251	424.997085460405	438.403839993034	909.885503619527	376.820924914094	379.201917753444	906.252412214096	242.364593736768	421.207687262886	956.428660770263	379.065226805108	618.768653374908	863.723505942308	289.108994021786	675.036292055872	882.888172437287	191.682674461422	608.499529722061	719.991267867417	44.292378283200	570.893278760337	890.409876868935	95.834396787135	615.534203782262	798.884139454643	37.472234123416	650.808320552348	1007.306375473242	41.829781846079	653.861874950436	721.764215831367	155.843462024490	446.323123894684	785.415759609996	127.411764110801	362.810916377971	888.662604815137	143.488935594226	388.580422742776	978.400739250635	45.294432160148	348.165683724895	853.238520573979	1042.158868475290	290.259422272275	889.206057835345	784.134761810546	299.670476120024	937.572318222550	1089.231249845122	868.446920423803	1169.000671711880	978.394782090105	905.557539600721	
110	58.910000000000	700.719589451565	975.636304283588	579.490652165221	878.163753471954	1401.472909148346	379.901024068901	978.956711644019	1341.341129168307	545.347883528883	892.148398703898	1420.941828652910	715.293312209540	863.283018661567	1471.190000987094	535.212561631357	936.263846798463	924.177897177378	695.442827358471	917.500787566031	941.183030428299	421.628822779638	993.134727849028	726.135701474546	652.488078434584	920.309280718376	604.716324150668	700.380340878407	999.930638704252	563.531626750587	615.616636402919	1003.905950041530	464.684179038046	615.657540812548	1016.597120622296	769.798671731258	465.172099205927	990.308726191851	638.333206965777	388.729080106348	1089.034928169853	584.671077660009	466.807823812878	1109.660411489560	496.232387518386	457.542867959673	1050.376331593679	426.562594742267	437.095677782453	917.279263388494	371.627545759964	378.353826940115	920.794396958418	237.160915864911	420.541116689148	952.654504417896	378.063191509639	618.045053854147	859.620676766724	288.658223553713	674.802993406664	877.742997709619	191.139513344769	608.177653955896	714.001327170588	44.306953776638	571.045497676900	884.447453739855	95.826049265840	615.556416347492	792.852630691329	37.459871253480	650.892058479094	1001.257096317077	41.762505177154	653.884965370435	741.375255316050	141.227102125490	446.421457555132	806.116710490782	115.972540765298	362.814052633494	908.320265521803	137.513438845288	388.273816670317	1002.939725440045	44.243827367968	347.946531021670	834.465153317045	1042.876483465211	290.023478310475	856.110874857869	783.402589966578	300.419966018426	950.829630643952	1091.563195178148	867.456973117969	1189.494730919667	996.029478519664	897.530612140592	
111	58.930000000000	700.905042183463	976.280061826925	582.282047990431	873.995547150228	1401.381000389243	379.057018062033	978.385198994546	1341.701760979629	542.389190423637	895.334910156644	1421.832004945303	713.962457256237	862.710506641352	1471.525481119037	534.394122118170	937.714548118294	924.332933390723	694.564297219461	915.132318518287	941.601715194215	421.002243641060	991.780358536031	725.213386089182	651.239674910134	918.388079858833	604.495046411164	700.123338793575	996.470794466090	562.630362615276	614.467109698609	999.302041082572	463.883755074115	614.464688114853	1014.977429475399	771.015427121377	464.167871515547	988.549211722967	639.492258422381	387.582420331358	1087.860360207266	586.305650057934	464.687463258153	1109.840432117577	499.309340322528	455.484345566287	1053.856122328779	428.368693976571	435.279097889793	924.242448125042	366.233504613805	376.760392855826	935.364809737977	232.191618012631	419.310382849782	947.725788744046	377.584658654961	617.418056371237	854.694932867805	288.462325683802	674.677027161479	872.123217637569	190.902488442687	607.960101884707	707.996382992853	44.315298221197	571.246488294766	878.423162543422	95.798175862451	615.584432518434	786.802270148358	37.440131480940	650.995019385099	995.185071352338	41.715961660781	653.901391874479	761.917450041970	126.539603470517	445.766602285801	827.832212950577	104.588950634146	362.228732972876	928.565740733634	131.821634569022	387.499142208163	1028.101604722314	43.918338819043	347.597503007372	815.711382056853	1045.207444662425	289.771982807397	824.552734131759	785.302404985301	301.288532054592	964.173216152548	1094.973492321278	865.991634409119	1208.883436434617	1015.282103535874	888.391667314566	
